<svg width="25" height="24" viewBox="0 0 25 24" fill="none" xmlns="http://www.w3.org/2000/svg">
<g id="Frame">
<path id="Vector" d="M19.5833 7.72222V4.41667C19.5833 3.63427 18.9491 3 18.1667 3H5.41667C4.63427 3 4 3.63427 4 4.41667V18.5833C4 19.3658 4.63426 20 5.41667 20H18.1667C18.9491 20 19.5833 19.3658 19.5833 18.5833V15.2778M19.5833 7.72222H12.9722C12.1898 7.72222 11.5556 8.35649 11.5556 9.13889V13.8611C11.5556 14.6435 12.1898 15.2778 12.9722 15.2778H19.5833M19.5833 7.72222C20.3657 7.72222 21 8.35649 21 9.13889V13.8611C21 14.6435 20.3657 15.2778 19.5833 15.2778" stroke="white" stroke-opacity="0.4" stroke-width="1.5" stroke-linejoin="round"/>
</g>
</svg>
