<svg width="25" height="24" viewBox="0 0 25 24" fill="none" xmlns="http://www.w3.org/2000/svg">
<g id="Frame">
<g id="Vector">
<path d="M20 8V4.5C20 3.67158 19.3285 3 18.5 3H5C4.17158 3 3.5 3.67158 3.5 4.5V19.5C3.5 20.3285 4.17157 21 5 21H18.5C19.3285 21 20 20.3285 20 19.5V16" fill="white"/>
<path d="M20 8V4.5C20 3.67158 19.3285 3 18.5 3H5C4.17158 3 3.5 3.67158 3.5 4.5V19.5C3.5 20.3285 4.17157 21 5 21H18.5C19.3285 21 20 20.3285 20 19.5V16" stroke="white" stroke-width="1.5" stroke-linejoin="round"/>
</g>
<path id="Vector_2" d="M20 8H13C12.1716 8 11.5 8.67157 11.5 9.5V14.5C11.5 15.3284 12.1716 16 13 16H20C20.8284 16 21.5 15.3284 21.5 14.5V9.5C21.5 8.67157 20.8284 8 20 8Z" stroke="#1A1A1A" stroke-width="1.5" stroke-linejoin="round"/>
<path id="Vector_3" d="M14.5 12C14.5 11.4477 14.9477 11 15.5 11C16.0523 11 16.5 11.4477 16.5 12C16.5 12.5523 16.0523 13 15.5 13C14.9477 13 14.5 12.5523 14.5 12Z" fill="#1A1A1A"/>
</g>
</svg>
