<svg width="25" height="24" viewBox="0 0 25 24" fill="none" xmlns="http://www.w3.org/2000/svg">
<g id="Frame">
<path id="Vector" d="M12.5 22C18.0229 22 22.5 17.5229 22.5 12C22.5 6.47715 18.0229 2 12.5 2C6.97715 2 2.5 6.47715 2.5 12C2.5 17.5229 6.97715 22 12.5 22Z" stroke="white" stroke-opacity="0.4" stroke-width="1.5" stroke-linejoin="round"/>
<path id="Vector_2" d="M15.3284 11.2928L13.2071 9.17146C12.8166 8.78094 12.1834 8.78094 11.7929 9.17146L9.67157 11.2928C9.28105 11.6833 9.28105 12.3165 9.67157 12.707L11.7929 14.8283C12.1834 15.2188 12.8166 15.2188 13.2071 14.8283L15.3284 12.707C15.719 12.3165 15.719 11.6833 15.3284 11.2928Z" stroke="white" stroke-opacity="0.4" stroke-width="1.5" stroke-linejoin="round"/>
</g>
</svg>
