<svg width="16" height="16" viewBox="0 0 16 16" fill="none" xmlns="http://www.w3.org/2000/svg">
<g id="Frame">
<path id="Vector" d="M7.98032 0.985901C4.11276 0.985901 0.977417 4.12118 0.977417 7.98882C0.977417 11.8564 4.11268 14.9917 7.98032 14.9917C11.848 14.9917 14.9832 11.8564 14.9832 7.98882C14.9832 4.12118 11.848 0.985901 7.98032 0.985901ZM11.7578 6.1983L7.0211 10.935C6.92762 11.0284 6.76553 11.0177 6.65897 10.9112L6.34152 10.5937C6.34144 10.5937 6.34136 10.5937 6.34136 10.5936L4.21919 8.4714C4.11264 8.36485 4.11264 8.19212 4.21919 8.08557L4.79795 7.50681C4.9045 7.40018 5.07721 7.40018 5.18378 7.50681L6.85188 9.17493L10.7931 5.23371C10.8866 5.14024 11.0487 5.15087 11.1552 5.25742L11.734 5.83618C11.8405 5.94281 11.8512 6.10489 11.7578 6.1983Z" fill="white"/>
</g>
</svg>
