<svg width="44" height="44" viewBox="0 0 44 44" fill="none" xmlns="http://www.w3.org/2000/svg">
<g id="Group 2">
<g id="Group 1">
<circle id="Ellipse 2" cx="22" cy="22" r="22" fill="white"/>
<g id="Frame">
<path id="Vector" d="M24.3641 32.9575L31.8751 27.8289C31.9136 27.8029 31.9451 27.7681 31.9669 27.7275C31.9886 27.6869 32 27.6417 32 27.5958C32 27.5499 31.9886 27.5047 31.9669 27.4641C31.9451 27.4235 31.9136 27.3887 31.8751 27.3627L24.3641 22.2311C24.3225 22.2027 24.2733 22.187 24.2226 22.186C24.172 22.185 24.1222 22.1987 24.0794 22.2255C24.0357 22.2533 24.0007 22.2924 23.9782 22.3386C23.9557 22.3847 23.9466 22.4361 23.9519 22.487V26.1313H15.4593C15.4593 26.1313 12.0341 26.2175 11.1689 23.631C11.2596 24.5656 11.5488 25.4711 12.0178 26.2891C12.4869 27.107 13.1253 27.8191 13.8919 28.3794C14.5437 28.8297 15.3232 29.0668 16.1198 29.0571H23.9098V32.7031C23.9119 32.7557 23.9274 32.807 23.9548 32.8522C23.9822 32.8974 24.0208 32.9351 24.0669 32.9619C24.1122 32.9876 24.1638 33.0007 24.2161 33C24.2684 32.9992 24.3195 32.9844 24.3641 32.9575ZM18.6342 12.0487L11.1252 17.1778C11.0866 17.2039 11.055 17.2388 11.0332 17.2796C11.0114 17.3203 11 17.3657 11 17.4117C11 17.4577 11.0114 17.5031 11.0332 17.5439C11.055 17.5846 11.0866 17.6195 11.1252 17.6456L18.6335 22.7728C18.675 22.8012 18.7241 22.817 18.7747 22.8182C18.8254 22.8195 18.8752 22.8061 18.9181 22.7797C18.9622 22.7521 18.9975 22.713 19.0203 22.6669C19.043 22.6207 19.0522 22.5692 19.0469 22.5182V18.8739H27.5396C27.5396 18.8739 30.9634 18.7906 31.8299 21.3761C31.7394 20.4414 31.4503 19.5358 30.9813 18.7178C30.5123 17.8998 29.8738 17.1875 29.1072 16.6272C28.4547 16.1766 27.6744 15.9394 26.877 15.9493H19.0507V12.302C19.0562 12.2507 19.0471 12.1989 19.0243 12.1525C19.0015 12.106 18.9659 12.0667 18.9216 12.0391C18.8783 12.0122 18.8278 11.9986 18.7766 12.0001C18.7254 12.0016 18.6758 12.0181 18.6342 12.0474V12.0487Z" fill="black"/>
</g>
</g>
</g>
</svg>
